<svg xmlns="http://www.w3.org/2000/svg" width="600" height="360">
  <svg x="0" y="0"><svg width="120" height="120" fill="white"  viewBox="0 0 24 24"  ><path d="M10 14a8 8 0 0 1 8 8H2a8 8 0 0 1 8-8Zm7.363 1.233A7.505 7.505 0 0 1 22.983 22H20c0-2.61-1-4.986-2.637-6.767ZM10 1c3.315 0 6 2.685 6 6s-2.685 6-6 6-6-2.685-6-6 2.685-6 6-6Zm6.985 2.097a5 5 0 0 1-1.645 9.86A7.98 7.98 0 0 0 18 7a7.964 7.964 0 0 0-1.015-3.903Z"/></svg></svg>
  <svg x="120" y="0"><svg width="120" height="120" fill="white"  viewBox="0 0 24 24"  ><path d="M3.783 2.826 12 1l8.217 1.826a1 1 0 0 1 .783.976v9.987a6 6 0 0 1-2.672 4.992L12 23l-6.328-4.219A6 6 0 0 1 3 13.79V3.802a1 1 0 0 1 .783-.976Z"/></svg></svg>
  <svg x="240" y="0"><svg width="120" height="120" fill="white"  viewBox="0 0 24 24"  ><path d="M13 10h7l-9 13v-9H4l9-13v9Z"/></svg></svg>
  <svg x="360" y="0"><svg width="120" height="120" fill="white"  viewBox="0 0 24 24"  ><path d="M17 21H7A6 6 0 0 1 5.008 9.339a7 7 0 1 1 13.984 0A6 6 0 0 1 17 21Z"/></svg></svg>
  <svg x="480" y="0"><svg width="120" height="120" fill="white"  viewBox="0 0 24 24"  ><path d="M17 3a4 4 0 0 1 4 4v11a2 2 0 0 1-2 2h-1.8l1.8 1.5v.5H5v-.5L6.8 20H5a2 2 0 0 1-2-2V7a4 4 0 0 1 4-4h10Zm-5 11a2 2 0 1 0 0 4 2 2 0 0 0 0-4Zm7-7H5v4h14V7Z"/></svg></svg>
  <svg x="0" y="120"><svg width="120" height="120" fill="white"  viewBox="0 0 24 24"  ><path d="M14 3a1 1 0 0 1 1 1v15h2V9h3a1 1 0 0 1 1 1v9h2v2H1v-2h2V4a1 1 0 0 1 1-1h10Zm-3 8H7v2h4v-2Zm0-4H7v2h4V7Z"/></svg></svg>
  <svg x="120" y="120"><svg width="120" height="120" fill="white"  viewBox="0 0 24 24"  ><path d="M20 2a1 1 0 0 1 1 1v17h2v2H1v-2h2V3a1 1 0 0 1 1-1h16Zm-4 12H8v6h2v-4h4v4h2v-6Zm-3-8h-2v2H9v2h2v2h2v-2h2V8h-2V6Z"/></svg></svg>
  <svg x="240" y="120"><svg width="120" height="120" fill="white"  viewBox="0 0 24 24"  ><path d="M12.513 2.002a9.004 9.004 0 0 0 9.97 5.876A4.501 4.501 0 0 1 19 11.888V19l2 .001v2H3v-2h2v-7.113a4.503 4.503 0 0 1-3.484-4.01 9.004 9.004 0 0 0 9.972-5.876h1.025ZM17 12H7v7h10v-7Z"/></svg></svg>
  <svg x="360" y="120"><svg width="120" height="120" fill="white"  viewBox="0 0 24 24"  ><path d="M12 22C6.477 22 2 17.523 2 12S6.477 2 12 2s10 4.477 10 10-4.477 10-10 10Zm-1-11v6h2v-6h-2Zm0-4v2h2V7h-2Z"/></svg></svg>
  <svg x="480" y="120"><svg width="120" height="120" fill="white"  viewBox="0 0 24 24"  ><path d="M12 6a8 8 0 0 1 8 8v6h1v2H3v-2h1v-6a8 8 0 0 1 8-8Zm0 2a6 6 0 0 0-6 6h2a4 4 0 0 1 4-4V8ZM4.222 4.808l2.121 2.12L4.93 8.344 2.808 6.222l1.414-1.414Zm15.556 0 1.414 1.414-2.12 2.121-1.415-1.414 2.121-2.121ZM13 2v3h-2V2h2Z"/></svg></svg>
  <svg x="0" y="240"><svg width="120" height="120" fill="white"  viewBox="0 0 24 24"  ><path d="M12 22C6.477 22 2 17.523 2 12S6.477 2 12 2s10 4.477 10 10-4.477 10-10 10Zm-1-11v6h2v-6h-2Zm0-4v2h2V7h-2Z"/></svg></svg>
</svg>